<?xml version="1.0" encoding="utf-8"?>
<!-- Generator: Adobe Illustrator 26.3.1, SVG Export Plug-In . SVG Version: 6.00 Build 0)  -->
<svg version="1.1"
	 id="svg20" xmlns:sodipodi="http://sodipodi.sourceforge.net/DTD/sodipodi-0.dtd" xmlns:rdf="http://www.w3.org/1999/02/22-rdf-syntax-ns#" sodipodi:docname="adobe-photoshop-logo-2021.svg" xmlns:svg="http://www.w3.org/2000/svg" xmlns:inkscape="http://www.inkscape.org/namespaces/inkscape" xmlns:dc="http://purl.org/dc/elements/1.1/" xmlns:cc="http://creativecommons.org/ns#"
	 xmlns="http://www.w3.org/2000/svg" xmlns:xlink="http://www.w3.org/1999/xlink" x="0px" y="0px" viewBox="0 0 700 700"
	 style="enable-background:new 0 0 700 700;" xml:space="preserve">
<style type="text/css">
	.st0{display:none;}
	.st1{display:inline;}
	.st2{fill:#001E36;}
	.st3{fill:#31A8FF;}
	.st4{fill:#330000;}
	.st5{fill:#FF9A00;}
</style>
<sodipodi:namedview  bordercolor="#666666" borderopacity="1" gridtolerance="10" guidetolerance="10" id="namedview22" inkscape:current-layer="svg20" inkscape:cx="393.14717" inkscape:cy="320.92781" inkscape:pageopacity="0" inkscape:pageshadow="2" inkscape:window-height="837" inkscape:window-maximized="1" inkscape:window-width="1600" inkscape:window-x="-8" inkscape:window-y="-8" inkscape:zoom="0.71315043" objecttolerance="10" pagecolor="#ffffff" showgrid="false">
	</sodipodi:namedview>
<g id="Layer_2_00000058584568180300504090000001648436709851386026_" transform="matrix(2.0606602,0,0,2.0606602,102.72078,108.90276)" inkscape:export-filename="G:\Users\suitedoalex\sites\adobe-photoshop-logo-4.png" inkscape:export-ydpi="77.645012" inkscape:export-xdpi="77.645012" class="st0">
	<g id="Surfaces" class="st1">
		<g id="Photo_Surface">
			<g id="Outline_no_shadow">
				<path id="rect8" class="st2" d="M42.5,0h155C221,0,240,19,240,42.5v149c0,23.5-19,42.5-42.5,42.5h-155C19,234,0,215,0,191.5
					v-149C0,19,19,0,42.5,0z"/>
			</g>
		</g>
	</g>
	<g id="Outlined_Mnemonics_Logos" class="st1">
		<g id="Ps">
			<path id="path13" inkscape:connector-curvature="0" class="st3" d="M54,164.1V61.2c0-0.7,0.3-1.1,1-1.1c1.7,0,3.3,0,5.6-0.1
				c2.4-0.1,4.9-0.1,7.6-0.2c2.7-0.1,5.6-0.1,8.7-0.2c3.1-0.1,6.1-0.1,9.1-0.1c8.2,0,15,1,20.6,3.1c5,1.7,9.6,4.5,13.4,8.2
				c3.2,3.2,5.7,7.1,7.3,11.4c1.5,4.2,2.3,8.5,2.3,13c0,8.6-2,15.7-6,21.3c-4,5.6-9.6,9.8-16.1,12.2c-6.8,2.5-14.3,3.4-22.5,3.4
				c-2.4,0-4,0-5-0.1c-1-0.1-2.4-0.1-4.3-0.1v32.1c0.1,0.7-0.4,1.3-1.1,1.4c-0.1,0-0.2,0-0.4,0H55.2C54.4,165.4,54,165,54,164.1
				L54,164.1z M75.8,79.4V113c1.4,0.1,2.7,0.2,3.9,0.2H85c3.9,0,7.8-0.6,11.5-1.8c3.2-0.9,6-2.8,8.2-5.3c2.1-2.5,3.1-5.9,3.1-10.3
				c0.1-3.1-0.7-6.2-2.3-8.9c-1.7-2.6-4.1-4.6-7-5.7c-3.7-1.5-7.7-2.1-11.8-2c-2.6,0-4.9,0-6.8,0.1C77.9,79.2,76.5,79.3,75.8,79.4
				L75.8,79.4z"/>
			<path id="path15" inkscape:connector-curvature="0" class="st3" d="M192,106.9c-3-1.6-6.2-2.7-9.6-3.4c-3.7-0.8-7.4-1.3-11.2-1.3
				c-2-0.1-4.1,0.2-6,0.7c-1.3,0.3-2.4,1-3.1,2c-0.5,0.8-0.8,1.8-0.8,2.7c0,0.9,0.4,1.8,1,2.6c0.9,1.1,2.1,2,3.4,2.7
				c2.3,1.2,4.7,2.3,7.1,3.3c5.4,1.8,10.6,4.3,15.4,7.3c3.3,2.1,6,4.9,7.9,8.3c1.6,3.2,2.4,6.7,2.3,10.3c0.1,4.7-1.3,9.4-3.9,13.3
				c-2.8,4-6.7,7.1-11.2,8.9c-4.9,2.1-10.9,3.2-18.1,3.2c-4.6,0-9.1-0.4-13.6-1.3c-3.5-0.6-7-1.7-10.2-3.2c-0.7-0.4-1.2-1.1-1.1-1.9
				v-17.4c0-0.3,0.1-0.7,0.4-0.9c0.3-0.2,0.6-0.1,0.9,0.1c3.9,2.3,8,3.9,12.4,4.9c3.8,1,7.8,1.5,11.8,1.5c3.8,0,6.5-0.5,8.3-1.4
				c1.6-0.7,2.7-2.4,2.7-4.2c0-1.4-0.8-2.7-2.4-4c-1.6-1.3-4.9-2.8-9.8-4.7c-5.1-1.8-9.8-4.2-14.2-7.2c-3.1-2.2-5.7-5.1-7.6-8.5
				c-1.6-3.2-2.4-6.7-2.3-10.2c0-4.3,1.2-8.4,3.4-12.1c2.5-4,6.2-7.2,10.5-9.2c4.7-2.4,10.6-3.5,17.7-3.5c4.1,0,8.3,0.3,12.4,0.9
				c3,0.4,5.9,1.2,8.6,2.3c0.4,0.1,0.8,0.5,1,0.9c0.1,0.4,0.2,0.8,0.2,1.2v16.3c0,0.4-0.2,0.8-0.5,1
				C192.9,107.1,192.4,107.1,192,106.9L192,106.9z"/>
		</g>
	</g>
</g>
<path class="st4" d="M190.3,108.9h319.4c48.4,0,87.6,39.2,87.6,87.6v307c0,48.4-39.2,87.6-87.6,87.6H190.3
	c-48.4,0-87.6-39.2-87.6-87.6v-307C102.7,148.1,141.9,108.9,190.3,108.9z"/>
<path class="st5" d="M342.4,398.3h-76.6l-15.6,48.4c-0.4,1.8-2.1,3.1-4,3h-38.8c-2.2,0-3-1.2-2.3-3.7l66.4-191.1
	c0.6-2,1.3-4.2,2-6.8c0.9-4.4,1.3-8.9,1.3-13.4c-0.2-1.1,0.6-2.2,1.7-2.3c0,0,0,0,0,0c0.2,0,0.4,0,0.6,0h52.7c1.5,0,2.4,0.6,2.7,1.7
	l75.3,212.3c0.7,2.2,0,3.3-2,3.3h-43.1c-1.5,0.2-3-0.8-3.3-2.3L342.4,398.3z M277.7,356.4h52.4c-1.3-4.4-2.9-9.4-4.6-14.9
	c-1.8-5.5-3.7-11.4-5.6-17.8l-6-18.9c-2-6.3-3.8-12.4-5.5-18.3c-1.7-5.9-3.2-11.2-4.5-16.1h-0.3c-1.9,9-4.2,17.8-7,26.5
	c-3.1,10-6.2,20.1-9.5,30.5C283.9,338,280.7,347.6,277.7,356.4z"/>
<path class="st5" d="M452.5,267.6c-6.8,0.3-13.5-2.4-18.2-7.3c-4.7-5.1-7.3-11.9-7-18.9c-0.2-6.9,2.5-13.6,7.5-18.4
	c4.9-4.7,11.5-7.3,18.4-7.1c8,0,14.2,2.4,18.7,7.1c4.6,5,7,11.6,6.8,18.4c0.3,7-2.3,13.8-7.1,18.9
	C466.5,265.2,459.6,267.9,452.5,267.6z M429.6,446.4V287.8c0-2,0.9-3,2.6-3h40.8c1.8,0,2.6,1,2.6,3v158.6c0,2.2-0.9,3.3-2.6,3.3
	h-40.5C430.6,449.7,429.6,448.6,429.6,446.4z"/>
</svg>
