<?xml version="1.0" encoding="utf-8"?>
<!-- Generator: Adobe Illustrator 26.3.1, SVG Export Plug-In . SVG Version: 6.00 Build 0)  -->
<svg version="1.1" xmlns="http://www.w3.org/2000/svg" xmlns:xlink="http://www.w3.org/1999/xlink" x="0px" y="0px"
	 viewBox="0 0 700 700" style="enable-background:new 0 0 700 700;" xml:space="preserve">
<style type="text/css">
	.st0{display:none;}
	.st1{display:inline;}
	.st2{fill:#001E36;}
	.st3{fill:#31A8FF;}
	.st4{display:inline;fill:#330000;}
	.st5{fill:#FF9A00;}
	.st6{fill:#00005B;}
	.st7{fill:#9999FF;}
	.st8{display:inline;fill:#E65100;}
	.st9{display:inline;fill:#FF6D00;}
	.st10{display:inline;fill:#FFFFFF;}
	.st11{display:inline;fill:#EEEEEE;}
	.st12{fill:#264DE4;}
	.st13{fill:#2965F1;}
	.st14{fill:#EBEBEB;}
	.st15{fill:#FFFFFF;}
</style>
<g id="svg20" xmlns:sodipodi="http://sodipodi.sourceforge.net/DTD/sodipodi-0.dtd" xmlns:rdf="http://www.w3.org/1999/02/22-rdf-syntax-ns#" sodipodi:docname="adobe-photoshop-logo-2021.svg" xmlns:svg="http://www.w3.org/2000/svg" xmlns:inkscape="http://www.inkscape.org/namespaces/inkscape" xmlns:dc="http://purl.org/dc/elements/1.1/" xmlns:cc="http://creativecommons.org/ns#" class="st0">
	
		<sodipodi:namedview  bordercolor="#666666" borderopacity="1" gridtolerance="10" guidetolerance="10" id="namedview22" inkscape:current-layer="svg20" inkscape:cx="393.14717" inkscape:cy="320.92781" inkscape:pageopacity="0" inkscape:pageshadow="2" inkscape:window-height="837" inkscape:window-maximized="1" inkscape:window-width="1600" inkscape:window-x="-8" inkscape:window-y="-8" inkscape:zoom="0.71315043" objecttolerance="10" pagecolor="#ffffff" showgrid="false">
		</sodipodi:namedview>
	
		<g id="Layer_2_00000058584568180300504090000001648436709851386026_" transform="matrix(2.0606602,0,0,2.0606602,102.72078,108.90276)" inkscape:export-filename="G:\Users\suitedoalex\sites\adobe-photoshop-logo-4.png" inkscape:export-ydpi="77.645012" inkscape:export-xdpi="77.645012">
		<g id="Surfaces" class="st1">
			<g id="Photo_Surface">
				<g id="Outline_no_shadow">
					<path id="rect8" class="st2" d="M42.5,0h155C221,0,240,19,240,42.5v149c0,23.5-19,42.5-42.5,42.5h-155C19,234,0,215,0,191.5
						v-149C0,19,19,0,42.5,0z"/>
				</g>
			</g>
		</g>
		<g id="Outlined_Mnemonics_Logos" class="st1">
			<g id="Ps">
				<path id="path13" inkscape:connector-curvature="0" class="st3" d="M54,164.1V61.2c0-0.7,0.3-1.1,1-1.1c1.7,0,3.3,0,5.6-0.1
					c2.4-0.1,4.9-0.1,7.6-0.2c2.7-0.1,5.6-0.1,8.7-0.2c3.1-0.1,6.1-0.1,9.1-0.1c8.2,0,15,1,20.6,3.1c5,1.7,9.6,4.5,13.4,8.2
					c3.2,3.2,5.7,7.1,7.3,11.4c1.5,4.2,2.3,8.5,2.3,13c0,8.6-2,15.7-6,21.3c-4,5.6-9.6,9.8-16.1,12.2c-6.8,2.5-14.3,3.4-22.5,3.4
					c-2.4,0-4,0-5-0.1c-1-0.1-2.4-0.1-4.3-0.1v32.1c0.1,0.7-0.4,1.3-1.1,1.4c-0.1,0-0.2,0-0.4,0H55.2C54.4,165.4,54,165,54,164.1
					L54,164.1z M75.8,79.4V113c1.4,0.1,2.7,0.2,3.9,0.2H85c3.9,0,7.8-0.6,11.5-1.8c3.2-0.9,6-2.8,8.2-5.3c2.1-2.5,3.1-5.9,3.1-10.3
					c0.1-3.1-0.7-6.2-2.3-8.9c-1.7-2.6-4.1-4.6-7-5.7c-3.7-1.5-7.7-2.1-11.8-2c-2.6,0-4.9,0-6.8,0.1C77.9,79.2,76.5,79.3,75.8,79.4
					L75.8,79.4z"/>
				<path id="path15" inkscape:connector-curvature="0" class="st3" d="M192,106.9c-3-1.6-6.2-2.7-9.6-3.4
					c-3.7-0.8-7.4-1.3-11.2-1.3c-2-0.1-4.1,0.2-6,0.7c-1.3,0.3-2.4,1-3.1,2c-0.5,0.8-0.8,1.8-0.8,2.7c0,0.9,0.4,1.8,1,2.6
					c0.9,1.1,2.1,2,3.4,2.7c2.3,1.2,4.7,2.3,7.1,3.3c5.4,1.8,10.6,4.3,15.4,7.3c3.3,2.1,6,4.9,7.9,8.3c1.6,3.2,2.4,6.7,2.3,10.3
					c0.1,4.7-1.3,9.4-3.9,13.3c-2.8,4-6.7,7.1-11.2,8.9c-4.9,2.1-10.9,3.2-18.1,3.2c-4.6,0-9.1-0.4-13.6-1.3
					c-3.5-0.6-7-1.7-10.2-3.2c-0.7-0.4-1.2-1.1-1.1-1.9v-17.4c0-0.3,0.1-0.7,0.4-0.9c0.3-0.2,0.6-0.1,0.9,0.1
					c3.9,2.3,8,3.9,12.4,4.9c3.8,1,7.8,1.5,11.8,1.5c3.8,0,6.5-0.5,8.3-1.4c1.6-0.7,2.7-2.4,2.7-4.2c0-1.4-0.8-2.7-2.4-4
					c-1.6-1.3-4.9-2.8-9.8-4.7c-5.1-1.8-9.8-4.2-14.2-7.2c-3.1-2.2-5.7-5.1-7.6-8.5c-1.6-3.2-2.4-6.7-2.3-10.2
					c0-4.3,1.2-8.4,3.4-12.1c2.5-4,6.2-7.2,10.5-9.2c4.7-2.4,10.6-3.5,17.7-3.5c4.1,0,8.3,0.3,12.4,0.9c3,0.4,5.9,1.2,8.6,2.3
					c0.4,0.1,0.8,0.5,1,0.9c0.1,0.4,0.2,0.8,0.2,1.2v16.3c0,0.4-0.2,0.8-0.5,1C192.9,107.1,192.4,107.1,192,106.9L192,106.9z"/>
			</g>
		</g>
	</g>
	<path class="st4" d="M190.3,108.9h319.4c48.4,0,87.6,39.2,87.6,87.6v307c0,48.4-39.2,87.6-87.6,87.6H190.3
		c-48.4,0-87.6-39.2-87.6-87.6v-307C102.7,148.1,141.9,108.9,190.3,108.9z"/>
	<path class="st5" d="M342.4,398.3h-76.6l-15.6,48.4c-0.4,1.8-2.1,3.1-4,3h-38.8c-2.2,0-3-1.2-2.3-3.7l66.4-191.1
		c0.6-2,1.3-4.2,2-6.8c0.9-4.4,1.3-8.9,1.3-13.4c-0.2-1.1,0.6-2.2,1.7-2.3c0,0,0,0,0,0c0.2,0,0.4,0,0.6,0h52.7
		c1.5,0,2.4,0.6,2.7,1.7l75.3,212.3c0.7,2.2,0,3.3-2,3.3h-43.1c-1.5,0.2-3-0.8-3.3-2.3L342.4,398.3z M277.7,356.4h52.4
		c-1.3-4.4-2.9-9.4-4.6-14.9c-1.8-5.5-3.7-11.4-5.6-17.8l-6-18.9c-2-6.3-3.8-12.4-5.5-18.3c-1.7-5.9-3.2-11.2-4.5-16.1h-0.3
		c-1.9,9-4.2,17.8-7,26.5c-3.1,10-6.2,20.1-9.5,30.5C283.9,338,280.7,347.6,277.7,356.4z"/>
	<path class="st5" d="M452.5,267.6c-6.8,0.3-13.5-2.4-18.2-7.3c-4.7-5.1-7.3-11.9-7-18.9c-0.2-6.9,2.5-13.6,7.5-18.4
		c4.9-4.7,11.5-7.3,18.4-7.1c8,0,14.2,2.4,18.7,7.1c4.6,5,7,11.6,6.8,18.4c0.3,7-2.3,13.8-7.1,18.9
		C466.5,265.2,459.6,267.9,452.5,267.6z M429.6,446.4V287.8c0-2,0.9-3,2.6-3h40.8c1.8,0,2.6,1,2.6,3v158.6c0,2.2-0.9,3.3-2.6,3.3
		h-40.5C430.6,449.7,429.6,448.6,429.6,446.4z"/>
	
		<image style="overflow:visible;" width="2500" height="2500" xlink:href="C:\Users\ss403\Downloads\Adobe-AfterEffects-CC.png"  transform="matrix(0.2307 0 0 0.2307 61.617 60.617)">
	</image>
</g>
<g id="Layer_2" class="st0">
	<path class="st6" d="M524.3,104H177.6c0,0-66.4,2.6-72.5,78.1l1,338.6c0,0,0,68.9,74.6,74h343.7c0,0,67.4-3.1,72-75.1V179.1
		C596.3,179.1,593.2,111.2,524.3,104z"/>
	<g id="Layer_3" class="st1">
		<line class="st6" x1="239.9" y1="262.3" x2="171.9" y2="453.3"/>
	</g>
	<g id="vlpa">
		<g id="vlpb" class="st1">
			<g id="vlpc">
				<g id="vlpd">
					<path class="st6" d="M190.9,107.7h318.9c48.4,0,87.4,39.1,87.4,87.4v306.6c0,48.4-39.1,87.4-87.4,87.4H190.9
						c-48.4,0-87.4-39.1-87.4-87.4V195.1C103.5,146.8,142.6,107.7,190.9,107.7z"/>
				</g>
			</g>
		</g>
		<g id="vlpe" class="st1">
			<g id="vlpf">
				<path class="st7" d="M301.8,395.7h-76.5l-15.6,48.6c-0.4,1.9-2.1,3.1-3.9,2.9h-38.7c-2.3,0-2.9-1.2-2.3-3.7L231,253.6
					c0.6-2.1,1.2-3.9,2.1-6.4c0.8-4.3,1.2-8.8,1.2-13.4c-0.2-1,0.6-2.1,1.6-2.3h0.6h52.7c1.4,0,2.5,0.6,2.7,1.6L367,443.1
					c0.6,2.3,0,3.3-2.1,3.3h-43c-1.4,0.2-2.9-0.8-3.3-2.3l-16.9-49.4L301.8,395.7z M237.2,354.8h52.3c-1.2-4.3-2.9-9.5-4.7-14.8
					c-1.9-5.6-3.7-11.5-5.6-17.7c-2.1-6.4-3.9-12.6-6-18.9s-3.9-12.3-5.6-18.3c-1.6-5.8-3.1-11.1-4.5-16h-0.4
					c-1.9,8.8-4.1,17.7-7,26.5c-3.1,9.9-6.2,20.2-9.5,30.5C243.6,336.5,240.3,346.2,237.2,354.8z"/>
				<path class="st7" d="M488.2,377.2H423c0.8,6.4,2.9,12.8,6.4,18.3c3.7,5.6,8.8,9.9,15,12.3c8.2,3.5,17.3,5.3,26.3,5.1
					c7.2-0.2,14.4-0.8,21.4-2.3c6.4-0.8,12.6-2.5,18.3-4.7c1-0.8,1.6-0.4,1.6,1.6v31.5c0,0.8-0.2,1.6-0.4,2.5
					c-0.4,0.6-0.8,1-1.4,1.4c-6.6,2.9-13.4,4.9-20.6,6.2c-9.7,1.9-19.3,2.7-29.2,2.5c-15.6,0-28.8-2.5-39.5-7.2
					c-10.1-4.3-18.9-11.1-25.9-19.5c-6.6-8-11.3-17.1-14.2-27c-2.9-9.7-4.3-19.8-4.3-30c0-11.1,1.6-22,5.1-32.7
					c3.3-10.3,8.4-19.8,15.4-28.2c6.8-8.2,15.2-14.8,24.9-19.5s21.2-6.4,34.4-6.4c10.9-0.2,21.8,1.9,31.9,6.4
					c8.4,3.7,15.8,9.3,21.6,16.5c5.3,7,9.7,14.8,12.3,23.5c2.7,8.2,3.9,16.7,3.9,25.1c0,4.9-0.2,9.3-0.4,13.2
					c-0.4,3.9-0.6,6.8-0.8,8.6c-0.2,1.4-1.4,2.7-2.9,2.7c-1.2,0-3.5,0.2-6.8,0.4c-3.3,0.4-7.2,0.6-11.9,0.6S493.6,377.2,488.2,377.2
					L488.2,377.2z M423,347.2h43.4c5.3,0,9.3,0,11.7-0.2c1.6-0.2,3.3-0.6,4.7-1.6v-2.1c0-2.7-0.4-5.1-1.2-7.6
					c-3.7-11.5-14.6-19.3-26.7-18.9c-11.3-0.6-22,5.3-27.4,15.6C425.1,337.1,423.6,342,423,347.2z"/>
			</g>
		</g>
	</g>
	<path class="st8" d="M556.1,109.8H127.2L165,538.7l176.6,50.5l176.6-50.5L556.1,109.8L556.1,109.8z"/>
	<polygon class="st9" points="341.6,147.6 341.6,550 482.9,509.7 514.4,147.6 	"/>
	<path class="st10" d="M341.6,362.1v-50.5h108.5l-8.8,145.1l-99.7,32.8v-53l51.7-17.7l3.8-56.8L341.6,362.1L341.6,362.1z
		 M453.9,261.2l3.8-50.5H341.6v50.5H453.9z"/>
	<path class="st11" d="M341.6,436.5v53L242,456.7l-5-69.4h50.5l2.5,31.5L341.6,436.5z M279.8,261.2h61.8v-50.5H226.8l8.8,151.4h106
		v-50.5h-58L279.8,261.2z"/>
</g>
<g id="Layer_4">
	<path class="st12" d="M341.4,589.2l-172.8-48l-38.5-432h423.2l-38.6,431.9L341.4,589.2L341.4,589.2z"/>
	<path class="st13" d="M481.7,513.6l32.9-369.1h-173v407.9L481.7,513.6L481.7,513.6z"/>
	<path class="st14" d="M218.3,304.7l4.7,53h118.6v-53H218.3z M208.8,197.5l4.8,53h128v-53L208.8,197.5L208.8,197.5z M341.6,442.3
		l-0.2,0.1l-59-15.9l-3.8-42.3h-53.2l7.4,83.2l108.5,30.1l0.2-0.1V442.3z"/>
	<path class="st0" d="M229.6-8.2h64.2v26.8h-37.3v26.8h37.3v26.8h-64.2V-8.2z M306.6-8.2h64.2v23.3h-37.3v4.7h37.3v53.7h-64.2V49
		H344v-4.7h-37.3L306.6-8.2L306.6-8.2z M383.6-8.2h64.2v23.3h-37.3v4.7h37.3v53.7h-64.2V49H421v-4.7h-37.3L383.6-8.2L383.6-8.2z"/>
	<path class="st15" d="M464.6,304.7l9.6-107.2H341.4v53h74.7l-4.8,54.3h-69.8v53h65.2l-6.2,68.7l-59.1,15.9v55.1L450,467.4l0.8-9
		l12.5-139.5L464.6,304.7L464.6,304.7z"/>
</g>
</svg>
